<svg height="512pt" viewBox="0 0 512.04805 512" width="512pt" xmlns="http://www.w3.org/2000/svg"><path d="m502.964844 482.757812v.085938c-.90625 4.472656-3.03125 8.609375-6.144532 11.945312-5.054687 5.589844-12.257812 8.757813-19.796874 8.707032h-442.023438c-8.097656.179687-15.808594-3.453125-20.824219-9.808594-5.015625-6.359375-6.753906-14.703125-4.691406-22.535156l40.277344-143.015625 4.949219-17.410157 19.710937-69.972656c3.347656-11.273437 13.757813-18.964844 25.515625-18.859375h312.148438c11.757812-.105469 22.167968 7.585938 25.515624 18.859375l11.605469 41.042969 5.289063 19.03125 48.042968 170.324219c1.074219 3.777344 1.21875 7.761718.425782 11.605468zm0 0" fill="#66993e"/><path d="m477.367188 482.757812v.085938c-.90625 4.472656-3.035157 8.609375-6.144532 11.945312-5.058594 5.589844-12.261718 8.757813-19.796875 8.707032h-416.425781c-8.097656.179687-15.808594-3.453125-20.824219-9.808594-5.015625-6.359375-6.753906-14.703125-4.691406-22.535156l40.277344-143.015625 4.949219-17.410157 19.710937-69.972656c3.347656-11.273437 13.757813-18.964844 25.515625-18.859375h286.546875c11.761719-.105469 22.167969 7.585938 25.515625 18.859375l11.605469 41.042969 5.292969 19.03125 48.042968 170.324219c1.070313 3.777344 1.21875 7.761718.425782 11.605468zm0 0" fill="#9aca5c"/><path d="m393.140625 145.09375c0 103.679688-89.511719 218.539062-123.5625 258.476562-3.253906 3.78125-8 5.949219-12.988281 5.929688-4.988282-.015625-9.722656-2.214844-12.953125-6.015625l-.082031-.085937c-35.757813-42.070313-132.269532-166.144532-122.796876-273.324219 6.601563-64.410157 57.960938-115.089844 122.453126-120.828125 5.242187-.570313 10.515624-.800782 15.789062-.683594 74.46875 1.300781 134.152344 62.050781 134.140625 136.53125zm0 0" fill="#d13d34"/><path d="m366.945312 145.09375c0 103.511719-89.257812 218.199219-123.390624 258.304688-35.757813-42.070313-132.269532-166.144532-122.796876-273.324219 6.601563-64.410157 57.960938-115.089844 122.453126-120.828125 70.125 6.5625 123.730468 65.417968 123.734374 135.847656zm0 0" fill="#f85b44"/><path d="m324.277344 162.160156c0 37.703125-30.5625 68.269532-68.265625 68.269532s-68.265625-30.566407-68.265625-68.269532 30.5625-68.265625 68.265625-68.265625 68.265625 30.5625 68.265625 68.265625zm0 0" fill="#ebeced"/><path d="m256.011719 93.894531v34.132813c-9.050781.015625-17.730469 3.605468-24.148438 9.984375l-24.148437-24.148438c12.820312-12.789062 30.1875-19.96875 48.296875-19.96875zm0 0" fill="#f6f6f6"/><path d="m304.308594 113.863281-24.148438 24.148438c-6.417968-6.378907-15.097656-9.96875-24.148437-9.984375v-34.132813c18.109375 0 35.476562 7.179688 48.296875 19.96875zm0 0" fill="#5ab862"/><path d="m324.277344 162.160156h-34.132813c-.015625-9.050781-3.605469-17.726562-9.984375-24.148437l24.148438-24.148438c12.789062 12.820313 19.972656 30.191407 19.96875 48.296875zm0 0" fill="#f6f6f6"/><path d="m324.277344 162.160156c.003906 18.109375-7.179688 35.480469-19.96875 48.300782l-24.148438-24.148438c6.378906-6.421875 9.96875-15.101562 9.984375-24.152344zm0 0" fill="#5ab862"/><path d="m304.308594 210.460938c-12.820313 12.789062-30.1875 19.96875-48.296875 19.96875v-34.136719c9.050781-.015625 17.730469-3.601563 24.148437-9.980469zm0 0" fill="#f6f6f6"/><path d="m256.011719 196.292969v34.136719c-18.109375 0-35.476563-7.179688-48.296875-19.96875l24.148437-24.148438c6.417969 6.378906 15.097657 9.964844 24.148438 9.980469zm0 0" fill="#5ab862"/><path d="m231.863281 186.3125-24.148437 24.148438c-12.789063-12.820313-19.972656-30.191407-19.96875-48.300782h34.132812c.015625 9.050782 3.601563 17.730469 9.984375 24.152344zm0 0" fill="#f6f6f6"/><path d="m231.863281 138.011719c-6.382812 6.421875-9.96875 15.097656-9.984375 24.148437h-34.132812c-.003906-18.105468 7.179687-35.476562 19.96875-48.296875zm0 0" fill="#5ab862"/><path d="m290.144531 162.160156c-.019531 16.261719-11.523437 30.242188-27.472656 33.398438s-31.910156-5.390625-38.121094-20.417969c-6.214843-15.023437-.949219-32.347656 12.574219-41.375 13.523438-9.03125 31.539062-7.25 43.035156 4.246094 6.378906 6.421875 9.96875 15.097656 9.984375 24.148437zm0 0" fill="#5ab862"/><path d="m66.1875 238.441406-64.914062 230.398438c-2.878907 10.109375-.816407 20.980468 5.566406 29.332031 6.664062 8.8125 17.109375 13.953125 28.160156 13.855469h442.023438c11.050781.097656 21.496093-5.042969 28.160156-13.855469 6.394531-8.34375 8.46875-19.21875 5.597656-29.332031l-64.910156-230.398438c-4.398438-14.957031-18.171875-25.1875-33.757813-25.078125h-21.207031c6.863281-22.121093 10.5-45.113281 10.804688-68.269531-.335938-79.023438-63.597657-143.378906-142.601563-145.0664062-.855469 0-1.65625 0-2.484375 0-74.25-.5585938-136.757812 55.4179682-144.367188 129.2812502-1.941406 28.402344 1.476563 56.914062 10.070313 84.054687h-22.417969c-15.574218-.09375-29.328125 10.136719-33.722656 25.078125zm-45.695312 249.429688c-3.148438-4.089844-4.175782-9.429688-2.765626-14.398438l37.949219-134.746094 56.769531 102.78125c-.425781.289063-.894531.511719-1.3125.855469l-70.085937 52.597657h-6.046875c-5.683594.054687-11.0625-2.570313-14.507812-7.089844zm264.789062-35.578125 14.726562 42.667969h-230.535156l51.917969-38.980469c3.21875-2.398438 7.128906-3.691407 11.144531-3.6875zm32.171875 42.667969c.03125-.941407-.097656-1.882813-.378906-2.78125l-13.738281-39.886719h51.203124c13.125.109375 25.207032-7.140625 31.289063-18.769531l14.140625-27.308594 88.0625 85.070312c-3.167969 2.394532-7.035156 3.683594-11.007812 3.675782zm176.859375-21.332032-86.1875-83.226562 40.65625-78.507813 45.515625 161.5625zm-82.199219-243.199218c7.9375-.117188 14.992188 5.042968 17.285157 12.644531l12.632812 44.808593-71.367188 137.804688c-3.203124 5.917969-9.414062 9.585938-16.144531 9.539062l-89.976562.003907v-18.597657c4.46875-1.40625 8.460937-4.023437 11.53125-7.558593 1.441406-1.707031 2.996093-3.542969 4.582031-5.445313l.5625-.671875c28.785156-34.527343 78.429688-100.628906 104.105469-172.527343zm-282.855469-99.621094c6.800782-65.066406 61.949219-114.300782 127.367188-113.714844h2.203125c69.707031 1.496094 125.519531 58.277344 125.816406 128-.4375 25.011719-4.882812 49.785156-13.167969 73.386719-.101562.238281-.273437.4375-.359374.691406-24.625 72.933594-76.996094 141.652344-103.054688 172.921875l-.285156.339844c-1.703125 2.015625-3.25 3.882812-4.691406 5.570312-1.589844 1.894532-3.9375 2.976563-6.410157 2.964844-2.527343.003906-4.925781-1.113281-6.550781-3.046875-1.246094-1.460937-2.636719-3.117187-4.0625-4.824219-.503906-.597656-1.015625-1.210937-1.535156-1.851562-.992188-1.175782-2.042969-2.464844-3.089844-3.753906-1.605469-1.960938-3.277344-4.035157-5.050781-6.246094l-.777344-.972656c-39.511719-49.707032-114.492187-157.363282-106.351563-249.464844zm103.023438 272.402344v.050781c1.707031 1.996093 3.285156 3.925781 4.8125 5.71875 2.804688 3.234375 6.375 5.710937 10.382812 7.210937v19.035156h-114.941406c-1.304687.035157-2.601562.140626-3.890625.316407l-66.390625-120.183594 20.367188-72.292969c2.304687-7.597656 9.355468-12.75 17.289062-12.636718h28.015625c25.566407 71.722656 75.09375 137.726562 104.355469 172.78125zm0 0"/><path d="m201.707031 216.46875c.058594.066406.144531.085938.203125.144531 29.914063 29.800781 78.289063 29.800781 108.203125 0 .058594-.058593.144531-.078125.203125-.144531.0625-.070312.085938-.144531.144532-.207031 29.800781-29.910157 29.800781-78.289063 0-108.203125-.058594-.058594-.074219-.144532-.144532-.203125-.066406-.058594-.144531-.085938-.203125-.144531-29.914062-29.800782-78.289062-29.800782-108.203125 0-.058594.058593-.144531.074218-.203125.144531-.0625.066406-.085937.144531-.148437.203125-29.796875 29.914062-29.796875 78.292968 0 108.203125.0625.0625.078125.144531.148437.207031zm6.519531-90.011719 12.210938 12.210938c-3.023438 4.539062-5.144531 9.617187-6.238281 14.960937h-17.238281c1.414062-9.859375 5.285156-19.203125 11.265624-27.171875zm106.835938 27.171875h-17.238281c-1.097657-5.34375-3.21875-10.421875-6.246094-14.960937l12.21875-12.210938c5.980469 7.96875 9.851563 17.3125 11.265625 27.171875zm-11.265625 44.234375-12.210937-12.210937c3.023437-4.535156 5.140624-9.617188 6.238281-14.957032h17.238281c-1.414062 9.859376-5.285156 19.203126-11.265625 27.167969zm-47.785156-61.300781c14.136719 0 25.601562 11.460938 25.601562 25.597656 0 14.140625-11.464843 25.601563-25.601562 25.601563s-25.601563-11.460938-25.601563-25.601563c0-14.136718 11.464844-25.597656 25.601563-25.597656zm-23.492188 61.15625c4.535157 3.03125 9.617188 5.15625 14.957031 6.257812v17.234376c-9.859374-1.410157-19.203124-5.285157-27.167968-11.261719zm32.023438 6.257812c5.34375-1.101562 10.421875-3.222656 14.960937-6.25l12.210938 12.222657c-7.964844 5.976562-17.3125 9.851562-27.171875 11.261719zm14.960937-77.363281c-4.535156-3.035156-9.617187-5.160156-14.960937-6.265625v-17.238281c9.859375 1.414063 19.207031 5.289063 27.171875 11.265625zm-32.027344-6.265625c-5.339843 1.097656-10.417968 3.21875-14.957031 6.246094l-12.210937-12.21875c7.964844-5.976562 17.308594-9.851562 27.167968-11.265625zm-33.277343 50.347656c1.097656 5.339844 3.21875 10.421876 6.246093 14.957032l-12.21875 12.210937c-5.980468-7.964843-9.851562-17.308593-11.265624-27.167969zm0 0"/><path d="m256.011719 68.292969c4.710937 0 8.53125-3.820313 8.53125-8.53125v-17.066407c0-4.714843-3.820313-8.535156-8.53125-8.535156-4.714844 0-8.535157 3.820313-8.535157 8.535156v17.066407c0 4.710937 3.820313 8.53125 8.535157 8.53125zm0 0"/><path d="m324.277344 93.894531c2.265625 0 4.433594-.898437 6.035156-2.5l8.53125-8.535156c3.234375-3.347656 3.1875-8.667969-.101562-11.960937-3.292969-3.289063-8.617188-3.335938-11.964844-.101563l-8.53125 8.53125c-2.441406 2.441406-3.171875 6.109375-1.851563 9.296875 1.320313 3.191406 4.433594 5.269531 7.882813 5.269531zm0 0"/><path d="m187.746094 93.894531c3.449218 0 6.558594-2.078125 7.882812-5.269531 1.320313-3.1875.589844-6.855469-1.851562-9.296875l-8.53125-8.53125c-3.351563-3.234375-8.671875-3.1875-11.964844.101563-3.289062 3.292968-3.335938 8.613281-.101562 11.960937l8.53125 8.535156c1.601562 1.601563 3.769531 2.5 6.035156 2.5zm0 0"/></svg>